M48
; DRILL file KiCad 10.0.0 date 2026-04-14T03:52:13
; FORMAT={-:-/ absolute / metric / decimal}
; #@! TF.CreationDate,2026-04-14T03:52:13-05:00
; #@! TF.GenerationSoftware,Kicad,Pcbnew,10.0.0
; #@! TF.FileFunction,Plated,1,2,PTH
FMAT,2
METRIC
; #@! TA.AperFunction,Plated,PTH,ViaDrill
T1C0.300
; #@! TA.AperFunction,Plated,PTH,ComponentDrill
T2C0.800
; #@! TA.AperFunction,Plated,PTH,ComponentDrill
T3C1.000
; #@! TA.AperFunction,Plated,PTH,ComponentDrill
T4C1.270
; #@! TA.AperFunction,Plated,PTH,ComponentDrill
T5C1.524
%
G90
G05
T1
X102.5Y-104.925
X102.5Y-117.575
X141.25Y-57.3
T2
X84.972Y-67.931
X84.972Y-70.471
X84.972Y-73.011
X84.972Y-75.551
X84.972Y-78.091
X84.972Y-80.631
X84.972Y-83.171
X84.972Y-85.711
X84.972Y-88.251
X86.342Y-47.571
X86.342Y-55.191
X90.092Y-47.571
X90.092Y-55.191
X92.592Y-67.931
X92.592Y-70.471
X92.592Y-73.011
X92.592Y-75.551
X92.592Y-78.091
X92.592Y-80.631
X92.592Y-83.171
X92.592Y-85.711
X92.592Y-88.251
X96.972Y-51.631
X96.972Y-57.131
X96.972Y-62.631
X96.972Y-68.131
X96.972Y-73.631
X96.972Y-79.131
X96.972Y-84.631
X96.972Y-90.131
X96.972Y-95.631
X96.972Y-101.131
X104.592Y-51.631
X104.592Y-57.131
X104.592Y-62.631
X104.592Y-68.131
X104.592Y-73.631
X104.592Y-79.131
X104.592Y-84.631
X104.592Y-90.131
X104.592Y-95.631
X104.592Y-101.131
X104.725Y-130.89
X104.725Y-138.51
X107.322Y-51.631
X107.322Y-57.131
X107.322Y-62.631
X107.322Y-68.131
X107.322Y-73.631
X107.322Y-79.131
X107.322Y-84.631
X107.322Y-90.131
X107.322Y-95.631
X107.322Y-101.131
X108.659Y-130.89
X108.659Y-138.51
X109.862Y-51.631
X109.862Y-57.131
X109.862Y-62.631
X109.862Y-68.131
X109.862Y-73.631
X109.862Y-79.131
X109.862Y-84.631
X109.862Y-90.131
X109.862Y-95.631
X109.862Y-101.131
X112.593Y-130.89
X112.593Y-138.51
X116.526Y-130.89
X116.526Y-138.51
X120.46Y-130.89
X120.46Y-138.51
X124.394Y-130.89
X124.394Y-138.51
X128.327Y-130.89
X128.327Y-138.51
X129.8Y-48.39
X129.8Y-56.01
X132.691Y-132.626
X132.691Y-137.706
X133.2Y-48.39
X133.2Y-56.01
X136.925Y-130.89
X136.925Y-138.51
X140.79Y-130.025
X145.99Y-103.4
X148.41Y-130.025
X153.425Y-35.95
X153.425Y-38.49
X153.425Y-41.03
X153.425Y-43.57
X153.61Y-103.4
X155.885Y-49.644
X155.885Y-54.724
X161.045Y-35.95
X161.045Y-38.49
X161.045Y-41.03
X161.045Y-43.57
X161.05Y-48.54
X161.05Y-56.16
X162.84Y-102.744
X162.84Y-107.824
X164.032Y-48.631
X171.652Y-48.631
X172.342Y-100.881
X172.342Y-108.501
X175.0Y-90.631
X175.0Y-96.131
X175.04Y-74.131
X175.04Y-79.631
X175.04Y-85.131
X175.842Y-49.321
X175.842Y-56.941
X177.54Y-90.631
X177.54Y-96.131
X177.58Y-74.131
X177.58Y-79.631
X177.58Y-85.131
X180.27Y-79.631
X180.27Y-85.131
X180.27Y-90.631
X180.27Y-96.131
X180.282Y-74.131
X180.342Y-49.321
X180.342Y-56.941
X181.032Y-61.631
X181.032Y-66.381
X184.842Y-49.321
X184.842Y-56.941
X187.89Y-79.631
X187.89Y-85.131
X187.89Y-90.631
X187.89Y-96.131
X187.902Y-74.131
X188.652Y-61.631
X188.652Y-66.381
X189.342Y-49.321
X189.342Y-56.941
X191.96Y-74.511
X191.96Y-77.051
X191.96Y-79.591
X191.96Y-82.131
X191.96Y-84.671
X191.96Y-87.211
X191.96Y-89.751
X191.96Y-92.291
X191.96Y-94.831
X193.24Y-110.125
X193.24Y-114.75
X193.24Y-119.375
X193.24Y-124.0
X193.24Y-128.625
X193.842Y-49.321
X193.842Y-56.941
X195.05Y-98.08
X195.05Y-105.7
X198.092Y-63.321
X198.092Y-70.941
X198.342Y-49.321
X198.342Y-56.941
X199.58Y-74.511
X199.58Y-77.051
X199.58Y-79.591
X199.58Y-82.131
X199.58Y-84.671
X199.58Y-87.211
X199.58Y-89.751
X199.58Y-92.291
X199.58Y-94.831
X199.7Y-98.08
X199.7Y-105.7
X200.86Y-110.125
X200.86Y-114.75
X200.86Y-119.375
X200.86Y-124.0
X200.86Y-128.625
X202.592Y-63.321
X202.592Y-70.941
T3
X88.075Y-124.075
X88.075Y-126.615
X88.075Y-129.155
X88.075Y-131.695
X95.422Y-109.987
X95.422Y-112.527
X95.422Y-115.067
X95.422Y-117.607
X95.422Y-120.147
X119.755Y-59.271
X119.755Y-61.811
X119.755Y-64.351
X119.755Y-66.891
X119.755Y-69.431
X119.755Y-71.971
X119.755Y-74.511
X119.755Y-77.051
X119.755Y-79.591
X119.755Y-82.131
X119.755Y-84.671
X119.755Y-87.211
X119.755Y-89.751
X119.755Y-92.291
X119.755Y-94.831
X119.755Y-97.371
X124.075Y-45.0
X126.615Y-45.0
X129.155Y-45.0
X131.695Y-45.0
X134.235Y-45.0
X136.775Y-45.0
X141.199Y-134.483
X141.199Y-138.983
X142.005Y-45.0
X144.545Y-45.0
X145.507Y-109.987
X145.507Y-112.527
X145.507Y-115.067
X145.507Y-117.607
X145.507Y-120.147
X147.085Y-45.0
X147.699Y-134.483
X147.699Y-138.983
X149.625Y-45.0
X153.6Y-134.05
X156.14Y-134.05
X158.68Y-134.05
X161.22Y-134.05
X178.092Y-102.631
X178.092Y-107.131
X179.842Y-44.8
X182.382Y-44.8
X184.592Y-102.631
X184.592Y-107.131
X184.922Y-44.8
X187.462Y-44.8
X190.002Y-44.8
X192.542Y-44.8
X193.05Y-134.05
X195.59Y-134.05
X197.705Y-44.8
X198.13Y-134.05
X200.245Y-44.8
X200.67Y-134.05
X202.785Y-44.8
X205.325Y-44.8
T4
X139.95Y-50.3
X139.95Y-55.38
X148.95Y-50.3
X148.95Y-55.38
T5
X165.45Y-41.7
X170.45Y-36.7
X175.45Y-41.7
M30
