%TF.GenerationSoftware,KiCad,Pcbnew,10.0.0*%
%TF.CreationDate,2026-04-14T03:52:11-05:00*%
%TF.ProjectId,DeadBounds_PCB,44656164-426f-4756-9e64-735f5043422e,rev?*%
%TF.SameCoordinates,Original*%
%TF.FileFunction,Legend,Bot*%
%TF.FilePolarity,Positive*%
%FSLAX46Y46*%
G04 Gerber Fmt 4.6, Leading zero omitted, Abs format (unit mm)*
G04 Created by KiCad (PCBNEW 10.0.0) date 2026-04-14 03:52:11*
%MOMM*%
%LPD*%
G01*
G04 APERTURE LIST*
%ADD10C,0.150000*%
%ADD11C,0.120000*%
%ADD12C,0.203200*%
G04 APERTURE END LIST*
D10*
X182675688Y-100988378D02*
X182532831Y-101035997D01*
X182532831Y-101035997D02*
X182294736Y-101035997D01*
X182294736Y-101035997D02*
X182199498Y-100988378D01*
X182199498Y-100988378D02*
X182151879Y-100940758D01*
X182151879Y-100940758D02*
X182104260Y-100845520D01*
X182104260Y-100845520D02*
X182104260Y-100750282D01*
X182104260Y-100750282D02*
X182151879Y-100655044D01*
X182151879Y-100655044D02*
X182199498Y-100607425D01*
X182199498Y-100607425D02*
X182294736Y-100559806D01*
X182294736Y-100559806D02*
X182485212Y-100512187D01*
X182485212Y-100512187D02*
X182580450Y-100464568D01*
X182580450Y-100464568D02*
X182628069Y-100416949D01*
X182628069Y-100416949D02*
X182675688Y-100321711D01*
X182675688Y-100321711D02*
X182675688Y-100226473D01*
X182675688Y-100226473D02*
X182628069Y-100131235D01*
X182628069Y-100131235D02*
X182580450Y-100083616D01*
X182580450Y-100083616D02*
X182485212Y-100035997D01*
X182485212Y-100035997D02*
X182247117Y-100035997D01*
X182247117Y-100035997D02*
X182104260Y-100083616D01*
X181770926Y-100035997D02*
X181532831Y-101035997D01*
X181532831Y-101035997D02*
X181342355Y-100321711D01*
X181342355Y-100321711D02*
X181151879Y-101035997D01*
X181151879Y-101035997D02*
X180913784Y-100035997D01*
X180009022Y-101035997D02*
X180580450Y-101035997D01*
X180294736Y-101035997D02*
X180294736Y-100035997D01*
X180294736Y-100035997D02*
X180389974Y-100178854D01*
X180389974Y-100178854D02*
X180485212Y-100274092D01*
X180485212Y-100274092D02*
X180580450Y-100321711D01*
X165884580Y-105233333D02*
X165932200Y-105185714D01*
X165932200Y-105185714D02*
X165979819Y-105042857D01*
X165979819Y-105042857D02*
X165979819Y-104947619D01*
X165979819Y-104947619D02*
X165932200Y-104804762D01*
X165932200Y-104804762D02*
X165836961Y-104709524D01*
X165836961Y-104709524D02*
X165741723Y-104661905D01*
X165741723Y-104661905D02*
X165551247Y-104614286D01*
X165551247Y-104614286D02*
X165408390Y-104614286D01*
X165408390Y-104614286D02*
X165217914Y-104661905D01*
X165217914Y-104661905D02*
X165122676Y-104709524D01*
X165122676Y-104709524D02*
X165027438Y-104804762D01*
X165027438Y-104804762D02*
X164979819Y-104947619D01*
X164979819Y-104947619D02*
X164979819Y-105042857D01*
X164979819Y-105042857D02*
X165027438Y-105185714D01*
X165027438Y-105185714D02*
X165075057Y-105233333D01*
X165313152Y-106090476D02*
X165979819Y-106090476D01*
X164932200Y-105852381D02*
X165646485Y-105614286D01*
X165646485Y-105614286D02*
X165646485Y-106233333D01*
X170427175Y-104524511D02*
X169950984Y-104191178D01*
X170427175Y-103953083D02*
X169427175Y-103953083D01*
X169427175Y-103953083D02*
X169427175Y-104334035D01*
X169427175Y-104334035D02*
X169474794Y-104429273D01*
X169474794Y-104429273D02*
X169522413Y-104476892D01*
X169522413Y-104476892D02*
X169617651Y-104524511D01*
X169617651Y-104524511D02*
X169760508Y-104524511D01*
X169760508Y-104524511D02*
X169855746Y-104476892D01*
X169855746Y-104476892D02*
X169903365Y-104429273D01*
X169903365Y-104429273D02*
X169950984Y-104334035D01*
X169950984Y-104334035D02*
X169950984Y-103953083D01*
X170427175Y-105476892D02*
X170427175Y-104905464D01*
X170427175Y-105191178D02*
X169427175Y-105191178D01*
X169427175Y-105191178D02*
X169570032Y-105095940D01*
X169570032Y-105095940D02*
X169665270Y-105000702D01*
X169665270Y-105000702D02*
X169712889Y-104905464D01*
%TO.C,SW1*%
D11*
X183092356Y-104881178D02*
G75*
G02*
X179592356Y-104881178I-1750000J0D01*
G01*
X179592356Y-104881178D02*
G75*
G02*
X183092356Y-104881178I1750000J0D01*
G01*
X184462356Y-105981178D02*
X184462356Y-103781178D01*
X183842356Y-108001178D02*
X178842356Y-108001178D01*
X183842356Y-101761178D02*
X178842356Y-101761178D01*
X178222356Y-103781178D02*
X178222356Y-105981178D01*
%TO.C,C4*%
X164110000Y-104013750D02*
X164110000Y-106553750D01*
X164110000Y-106553750D02*
X161570000Y-106553750D01*
D12*
X163475000Y-104966250D02*
X162205000Y-104966250D01*
X163475000Y-105601250D02*
X162205000Y-105601250D01*
D11*
X162840000Y-104966250D02*
X162840000Y-104331250D01*
X162840000Y-106236250D02*
X162840000Y-105601250D01*
X161570000Y-104013750D02*
X164110000Y-104013750D01*
X161570000Y-106553750D02*
X161570000Y-104013750D01*
%TO.C,R1*%
X170972356Y-101421178D02*
X170972356Y-107961178D01*
X170972356Y-107961178D02*
X171302356Y-107961178D01*
X171302356Y-101421178D02*
X170972356Y-101421178D01*
X173382356Y-101421178D02*
X173712356Y-101421178D01*
X173712356Y-101421178D02*
X173712356Y-107961178D01*
X173712356Y-107961178D02*
X173382356Y-107961178D01*
%TD*%
M02*
