%TF.GenerationSoftware,KiCad,Pcbnew,10.0.0*%
%TF.CreationDate,2026-04-14T03:52:11-05:00*%
%TF.ProjectId,DeadBounds_PCB,44656164-426f-4756-9e64-735f5043422e,rev?*%
%TF.SameCoordinates,Original*%
%TF.FileFunction,Copper,L1,Top*%
%TF.FilePolarity,Positive*%
%FSLAX46Y46*%
G04 Gerber Fmt 4.6, Leading zero omitted, Abs format (unit mm)*
G04 Created by KiCad (PCBNEW 10.0.0) date 2026-04-14 03:52:11*
%MOMM*%
%LPD*%
G01*
G04 APERTURE LIST*
G04 Aperture macros list*
%AMRoundRect*
0 Rectangle with rounded corners*
0 $1 Rounding radius*
0 $2 $3 $4 $5 $6 $7 $8 $9 X,Y pos of 4 corners*
0 Add a 4 corners polygon primitive as box body*
4,1,4,$2,$3,$4,$5,$6,$7,$8,$9,$2,$3,0*
0 Add four circle primitives for the rounded corners*
1,1,$1+$1,$2,$3*
1,1,$1+$1,$4,$5*
1,1,$1+$1,$6,$7*
1,1,$1+$1,$8,$9*
0 Add four rect primitives between the rounded corners*
20,1,$1+$1,$2,$3,$4,$5,0*
20,1,$1+$1,$4,$5,$6,$7,0*
20,1,$1+$1,$6,$7,$8,$9,0*
20,1,$1+$1,$8,$9,$2,$3,0*%
G04 Aperture macros list end*
%TA.AperFunction,ComponentPad*%
%ADD10C,1.700000*%
%TD*%
%TA.AperFunction,ComponentPad*%
%ADD11R,1.700000X1.700000*%
%TD*%
%TA.AperFunction,ComponentPad*%
%ADD12C,1.600000*%
%TD*%
%TA.AperFunction,ComponentPad*%
%ADD13O,1.600000X1.600000*%
%TD*%
%TA.AperFunction,ComponentPad*%
%ADD14C,2.286000*%
%TD*%
%TA.AperFunction,ComponentPad*%
%ADD15R,2.032000X2.032000*%
%TD*%
%TA.AperFunction,ComponentPad*%
%ADD16C,2.032000*%
%TD*%
%TA.AperFunction,ComponentPad*%
%ADD17C,1.270000*%
%TD*%
%TA.AperFunction,ComponentPad*%
%ADD18RoundRect,0.190500X-0.444500X0.444500X-0.444500X-0.444500X0.444500X-0.444500X0.444500X0.444500X0*%
%TD*%
%TA.AperFunction,ComponentPad*%
%ADD19RoundRect,0.190500X0.444500X-0.444500X0.444500X0.444500X-0.444500X0.444500X-0.444500X-0.444500X0*%
%TD*%
%TA.AperFunction,ComponentPad*%
%ADD20R,2.400000X1.600000*%
%TD*%
%TA.AperFunction,ComponentPad*%
%ADD21O,2.400000X1.600000*%
%TD*%
%TA.AperFunction,ComponentPad*%
%ADD22RoundRect,0.250000X0.550000X0.550000X-0.550000X0.550000X-0.550000X-0.550000X0.550000X-0.550000X0*%
%TD*%
%TA.AperFunction,ViaPad*%
%ADD23C,0.600000*%
%TD*%
%TA.AperFunction,Conductor*%
%ADD24C,0.500000*%
%TD*%
G04 APERTURE END LIST*
D10*
%TO.P,Joystick1(Move)1,5,Pin_5_5*%
%TO.N,GND*%
X95422418Y-109986895D03*
%TO.P,Joystick1(Move)1,4,Pin_4_4*%
%TO.N,+3.3V*%
X95422418Y-112526895D03*
%TO.P,Joystick1(Move)1,3,Pin_3_3*%
%TO.N,/Joysticks and Buttons/VRX1*%
X95422418Y-115066895D03*
%TO.P,Joystick1(Move)1,2,Pin_2_2*%
%TO.N,/Joysticks and Buttons/VRY1*%
X95422418Y-117606895D03*
D11*
%TO.P,Joystick1(Move)1,1,Pin_1_1*%
%TO.N,unconnected-(Joystick1(Move)1-Pin_1-Pad1)*%
X95422418Y-120146895D03*
%TD*%
D12*
%TO.P,R8,2*%
%TO.N,Net-(HP_DRIVER1-SIG)*%
X120460000Y-130890000D03*
%TO.P,R8,1*%
%TO.N,/LED Bar Drivers + DAC4s/HPDAC1*%
X120460000Y-138510000D03*
%TD*%
%TO.P,R6,2*%
%TO.N,Net-(HP_DRIVER1-SIG)*%
X112592500Y-130890000D03*
%TO.P,R6,1*%
%TO.N,/LED Bar Drivers + DAC4s/HPDAC2*%
X112592500Y-138510000D03*
%TD*%
%TO.P,R11,2*%
%TO.N,Net-(HP_DRIVER1-SIG)*%
X124393750Y-130890000D03*
%TO.P,R11,1*%
%TO.N,Net-(R11-Pad1)*%
X124393750Y-138510000D03*
%TD*%
%TO.P,R2,2*%
%TO.N,GND*%
X136925000Y-130890000D03*
%TO.P,R2,1*%
%TO.N,/SWShoot*%
X136925000Y-138510000D03*
%TD*%
%TO.P,R10,2*%
%TO.N,Net-(HP_DRIVER1-SIG)*%
X108658750Y-138510000D03*
%TO.P,R10,1*%
%TO.N,Net-(R10-Pad1)*%
X108658750Y-130890000D03*
%TD*%
%TO.P,R5,2*%
%TO.N,Net-(R11-Pad1)*%
X128327500Y-138510000D03*
%TO.P,R5,1*%
%TO.N,/LED Bar Drivers + DAC4s/HPDAC0*%
X128327500Y-130890000D03*
%TD*%
%TO.P,R4,2*%
%TO.N,Net-(R10-Pad1)*%
X104725000Y-130890000D03*
%TO.P,R4,1*%
%TO.N,/LED Bar Drivers + DAC4s/HPDAC3*%
X104725000Y-138510000D03*
%TD*%
%TO.P,R7,2*%
%TO.N,Net-(HP_DRIVER1-SIG)*%
X116526250Y-130890000D03*
%TO.P,R7,1*%
%TO.N,/LED Bar Drivers + DAC4s/HPDAC2*%
X116526250Y-138510000D03*
%TD*%
D10*
%TO.P,J6,4,Pin_4_4*%
%TO.N,/SWShoot*%
X200670000Y-134050000D03*
%TO.P,J6,3,Pin_3_3*%
%TO.N,unconnected-(J6-Pin_3-Pad3)*%
X198130000Y-134050000D03*
%TO.P,J6,2,Pin_2_2*%
%TO.N,unconnected-(J6-Pin_2-Pad2)*%
X195590000Y-134050000D03*
D11*
%TO.P,J6,1,Pin_1_1*%
%TO.N,/SWLang*%
X193050000Y-134050000D03*
%TD*%
D12*
%TO.P,R29,1*%
%TO.N,Net-(R23-Pad2)*%
X195050000Y-105700000D03*
%TO.P,R29,2*%
%TO.N,Net-(AMMO_DRIVER1-SIG)*%
X195050000Y-98080000D03*
%TD*%
%TO.P,R30,2*%
%TO.N,Net-(AMMO_DRIVER1-SIG)*%
X199700000Y-98080000D03*
%TO.P,R30,1*%
%TO.N,Net-(R24-Pad2)*%
X199700000Y-105700000D03*
%TD*%
%TO.P,R48,2*%
%TO.N,GND*%
X145990000Y-103400000D03*
%TO.P,R48,1*%
%TO.N,Net-(C4-Pad2)*%
X153610000Y-103400000D03*
%TD*%
%TO.P,R25,2*%
%TO.N,Net-(AMMO_DRIVER1-SIG)*%
X200860000Y-119375000D03*
%TO.P,R25,1*%
%TO.N,/LED Bar Drivers + DAC4s/AMMODAC2*%
X193240000Y-119375000D03*
%TD*%
%TO.P,R24,2*%
%TO.N,Net-(R24-Pad2)*%
X200860000Y-110125000D03*
%TO.P,R24,1*%
%TO.N,/AMMODAC0_PB12*%
X193240000Y-110125000D03*
%TD*%
%TO.P,R23,2*%
%TO.N,Net-(R23-Pad2)*%
X200860000Y-128625000D03*
%TO.P,R23,1*%
%TO.N,/LED Bar Drivers + DAC4s/AMMODAC3*%
X193240000Y-128625000D03*
%TD*%
%TO.P,R27,2*%
%TO.N,Net-(AMMO_DRIVER1-SIG)*%
X200860000Y-114750000D03*
%TO.P,R27,1*%
%TO.N,/AMMODAC1_PB13*%
X193240000Y-114750000D03*
%TD*%
%TO.P,R26,2*%
%TO.N,Net-(AMMO_DRIVER1-SIG)*%
X200860000Y-124000000D03*
%TO.P,R26,1*%
%TO.N,/LED Bar Drivers + DAC4s/AMMODAC2*%
X193240000Y-124000000D03*
%TD*%
D11*
%TO.P,J2,1,Pin_1_1*%
%TO.N,/AMMODAC0_PB12*%
X153600000Y-134050000D03*
D10*
%TO.P,J2,2,Pin_2_2*%
%TO.N,/AMMODAC1_PB13*%
X156140000Y-134050000D03*
%TO.P,J2,3,Pin_3_3*%
%TO.N,/LED Bar Drivers + DAC4s/AMMODAC2*%
X158680000Y-134050000D03*
%TO.P,J2,4,Pin_4_4*%
%TO.N,/LED Bar Drivers + DAC4s/AMMODAC3*%
X161220000Y-134050000D03*
%TD*%
%TO.P,SW1,2,2_2*%
%TO.N,+3.3V*%
X178092356Y-107131178D03*
X184592356Y-107131178D03*
%TO.P,SW1,1,1_1*%
%TO.N,/SWLang*%
X178092356Y-102631178D03*
X184592356Y-102631178D03*
%TD*%
D12*
%TO.P,R49,2*%
%TO.N,GND*%
X148410000Y-130025000D03*
%TO.P,R49,1*%
%TO.N,Net-(C5-Pad2)*%
X140790000Y-130025000D03*
%TD*%
%TO.P,C5,1*%
%TO.N,/SWShoot*%
X132691250Y-137706250D03*
D13*
%TO.P,C5,2*%
%TO.N,Net-(C5-Pad2)*%
X132691250Y-132626250D03*
%TD*%
D10*
%TO.P,SW2,1,1_1*%
%TO.N,/SWShoot*%
X141198685Y-134483235D03*
X147698685Y-134483235D03*
%TO.P,SW2,2,2_2*%
%TO.N,+3.3V*%
X141198685Y-138983235D03*
X147698685Y-138983235D03*
%TD*%
D14*
%TO.P,J8,R,ring_R*%
%TO.N,GND*%
X175450000Y-41700000D03*
%TO.P,J8,S,sleeve_S*%
X170450000Y-36700000D03*
%TO.P,J8,T,tip_T*%
%TO.N,Net-(J8-tip)*%
X165450000Y-41700000D03*
%TD*%
D15*
%TO.P,C2,1*%
%TO.N,Net-(U1-FC1)*%
X148950000Y-50300000D03*
D16*
%TO.P,C2,2*%
%TO.N,GND*%
X148950000Y-55380000D03*
%TD*%
D11*
%TO.P,Joystick2(Look)1,1,Pin_1_1*%
%TO.N,unconnected-(Joystick2(Look)1-Pin_1-Pad1)*%
X145506701Y-120146895D03*
D10*
%TO.P,Joystick2(Look)1,2,Pin_2_2*%
%TO.N,unconnected-(Joystick2(Look)1-Pin_2-Pad2)*%
X145506701Y-117606895D03*
%TO.P,Joystick2(Look)1,3,Pin_3_3*%
%TO.N,/Joysticks and Buttons/VRX2*%
X145506701Y-115066895D03*
%TO.P,Joystick2(Look)1,4,Pin_4_4*%
%TO.N,+3.3V*%
X145506701Y-112526895D03*
%TO.P,Joystick2(Look)1,5,Pin_5_5*%
%TO.N,GND*%
X145506701Y-109986895D03*
%TD*%
D12*
%TO.P,R3,1*%
%TO.N,GND*%
X90092356Y-55191178D03*
%TO.P,R3,2*%
%TO.N,Net-(HP_DRIVER1-REFADJ)*%
X90092356Y-47571178D03*
%TD*%
D17*
%TO.P,D5,1,K_1*%
%TO.N,Net-(D5-K)*%
X107322356Y-79131178D03*
D18*
%TO.P,D5,2,A_2*%
%TO.N,+5V*%
X109862356Y-79131178D03*
%TD*%
D12*
%TO.P,R14,1*%
%TO.N,Net-(HP_DRIVER1-LED3)*%
X96972356Y-90131178D03*
%TO.P,R14,2*%
%TO.N,Net-(D3-K)*%
X104592356Y-90131178D03*
%TD*%
%TO.P,R31,1*%
%TO.N,Net-(AMMO_DRIVER1-LED2)*%
X187890000Y-96131178D03*
%TO.P,R31,2*%
%TO.N,Net-(D11-K)*%
X180270000Y-96131178D03*
%TD*%
D17*
%TO.P,D3,1,K_1*%
%TO.N,Net-(D3-K)*%
X107322356Y-90131178D03*
D18*
%TO.P,D3,2,A_2*%
%TO.N,+5V*%
X109862356Y-90131178D03*
%TD*%
D12*
%TO.P,R42,1*%
%TO.N,/LSDAC5_PB7*%
X171652356Y-48631178D03*
%TO.P,R42,2*%
%TO.N,Net-(J8-tip)*%
X164032356Y-48631178D03*
%TD*%
%TO.P,R17,1*%
%TO.N,Net-(HP_DRIVER1-LED6)*%
X96972356Y-73631178D03*
%TO.P,R17,2*%
%TO.N,Net-(D6-K)*%
X104592356Y-73631178D03*
%TD*%
D17*
%TO.P,D11,1,K_1*%
%TO.N,Net-(D11-K)*%
X177540000Y-96131178D03*
D19*
%TO.P,D11,2,A_2*%
%TO.N,+5V*%
X175000000Y-96131178D03*
%TD*%
D17*
%TO.P,D10,1,K_1*%
%TO.N,Net-(D10-K)*%
X107322356Y-51631178D03*
D18*
%TO.P,D10,2,A_2*%
%TO.N,+5V*%
X109862356Y-51631178D03*
%TD*%
D12*
%TO.P,R22,1*%
%TO.N,GND*%
X198092356Y-63321178D03*
%TO.P,R22,2*%
%TO.N,Net-(AMMO_DRIVER1-REFADJ)*%
X198092356Y-70941178D03*
%TD*%
%TO.P,R12,1*%
%TO.N,Net-(HP_DRIVER1-LED1)*%
X96972356Y-101131178D03*
%TO.P,R12,2*%
%TO.N,Net-(D1-K)*%
X104592356Y-101131178D03*
%TD*%
D17*
%TO.P,D9,1,K_1*%
%TO.N,Net-(D9-K)*%
X107322356Y-57131178D03*
D18*
%TO.P,D9,2,A_2*%
%TO.N,+5V*%
X109862356Y-57131178D03*
%TD*%
D15*
%TO.P,C3,1*%
%TO.N,Net-(U1-FC2)*%
X139950000Y-50300000D03*
D16*
%TO.P,C3,2*%
%TO.N,GND*%
X139950000Y-55380000D03*
%TD*%
D12*
%TO.P,R41,1*%
%TO.N,/DAC6/LS1DAC4*%
X180342356Y-49321178D03*
%TO.P,R41,2*%
%TO.N,Net-(J8-tip)*%
X180342356Y-56941178D03*
%TD*%
%TO.P,C4,1*%
%TO.N,/SWLang*%
X162840000Y-102743750D03*
D13*
%TO.P,C4,2*%
%TO.N,Net-(C4-Pad2)*%
X162840000Y-107823750D03*
%TD*%
D12*
%TO.P,R19,1*%
%TO.N,Net-(HP_DRIVER1-LED8)*%
X96972356Y-62631178D03*
%TO.P,R19,2*%
%TO.N,Net-(D8-K)*%
X104592356Y-62631178D03*
%TD*%
%TO.P,R45,1*%
%TO.N,Net-(R37-Pad2)*%
X188652356Y-66381178D03*
%TO.P,R45,2*%
%TO.N,Net-(J8-tip)*%
X181032356Y-66381178D03*
%TD*%
%TO.P,R37,1*%
%TO.N,/DAC6/LS1DAC3*%
X184842356Y-49321178D03*
%TO.P,R37,2*%
%TO.N,Net-(R37-Pad2)*%
X184842356Y-56941178D03*
%TD*%
%TO.P,R28,1*%
%TO.N,Net-(AMMO_DRIVER1-REFADJ)*%
X202592356Y-63321178D03*
%TO.P,R28,2*%
%TO.N,Net-(AMMO_DRIVER1-REFOUT)*%
X202592356Y-70941178D03*
%TD*%
D11*
%TO.P,J4,1,Pin_1_1*%
%TO.N,Net-(J4-Pin_1)*%
X149625000Y-45000000D03*
D10*
%TO.P,J4,2,Pin_2_2*%
%TO.N,unconnected-(J4-Pin_2-Pad2)*%
X147085000Y-45000000D03*
%TO.P,J4,3,Pin_3_3*%
%TO.N,unconnected-(J4-Pin_3-Pad3)*%
X144545000Y-45000000D03*
%TO.P,J4,4,Pin_4_4*%
%TO.N,Net-(J4-Pin_4)*%
X142005000Y-45000000D03*
%TD*%
D17*
%TO.P,D6,1,K_1*%
%TO.N,Net-(D6-K)*%
X107322356Y-73631178D03*
D18*
%TO.P,D6,2,A_2*%
%TO.N,+5V*%
X109862356Y-73631178D03*
%TD*%
D12*
%TO.P,C1,1*%
%TO.N,Net-(C1-Pad1)*%
X155885000Y-49643750D03*
D13*
%TO.P,C1,2*%
%TO.N,Net-(J8-tip)*%
X155885000Y-54723750D03*
%TD*%
D12*
%TO.P,R35,1*%
%TO.N,Net-(AMMO_DRIVER1-LED10)*%
X187902356Y-74131178D03*
%TO.P,R35,2*%
%TO.N,Net-(D15-K)*%
X180282356Y-74131178D03*
%TD*%
%TO.P,R15,1*%
%TO.N,Net-(HP_DRIVER1-LED4)*%
X96972356Y-84631178D03*
%TO.P,R15,2*%
%TO.N,Net-(D4-K)*%
X104592356Y-84631178D03*
%TD*%
D20*
%TO.P,U1,1,CD_1*%
%TO.N,GND*%
X153425000Y-35950000D03*
D21*
%TO.P,U1,2,FC2_2*%
%TO.N,Net-(U1-FC2)*%
X153425000Y-38490000D03*
%TO.P,U1,3,FC1_3*%
%TO.N,Net-(U1-FC1)*%
X153425000Y-41030000D03*
%TO.P,U1,4,VIN_4*%
%TO.N,Net-(U1-VIN)*%
X153425000Y-43570000D03*
%TO.P,U1,5,VO1_5*%
%TO.N,Net-(J4-Pin_1)*%
X161045000Y-43570000D03*
%TO.P,U1,6,Vcc_6*%
%TO.N,+5V*%
X161045000Y-41030000D03*
%TO.P,U1,7,GND_7*%
%TO.N,GND*%
X161045000Y-38490000D03*
%TO.P,U1,8,VO2_8*%
%TO.N,Net-(J4-Pin_4)*%
X161045000Y-35950000D03*
%TD*%
D17*
%TO.P,D14,1,K_1*%
%TO.N,Net-(D14-K)*%
X177580000Y-79631178D03*
D19*
%TO.P,D14,2,A_2*%
%TO.N,+5V*%
X175040000Y-79631178D03*
%TD*%
D12*
%TO.P,R47,1*%
%TO.N,Net-(J4-Pin_1)*%
X129800000Y-48390000D03*
%TO.P,R47,2*%
%TO.N,Net-(U1-VIN)*%
X129800000Y-56010000D03*
%TD*%
%TO.P,R36,1*%
%TO.N,/DAC6/LS1DAC0*%
X198342356Y-49321178D03*
%TO.P,R36,2*%
%TO.N,Net-(R36-Pad2)*%
X198342356Y-56941178D03*
%TD*%
D22*
%TO.P,AMMO_DRIVER1,1,LED1_1*%
%TO.N,unconnected-(AMMO_DRIVER1-LED1-Pad1)*%
X199580000Y-94831178D03*
D12*
%TO.P,AMMO_DRIVER1,2,V-_2*%
%TO.N,GND*%
X199580000Y-92291178D03*
%TO.P,AMMO_DRIVER1,3,V+_3*%
%TO.N,+5V*%
X199580000Y-89751178D03*
%TO.P,AMMO_DRIVER1,4,RLO_4*%
%TO.N,GND*%
X199580000Y-87211178D03*
%TO.P,AMMO_DRIVER1,5,SIG_5*%
%TO.N,Net-(AMMO_DRIVER1-SIG)*%
X199580000Y-84671178D03*
%TO.P,AMMO_DRIVER1,6,RHI_6*%
%TO.N,+3.3V*%
X199580000Y-82131178D03*
%TO.P,AMMO_DRIVER1,7,REFOUT_7*%
%TO.N,Net-(AMMO_DRIVER1-REFOUT)*%
X199580000Y-79591178D03*
%TO.P,AMMO_DRIVER1,8,REFADJ_8*%
%TO.N,Net-(AMMO_DRIVER1-REFADJ)*%
X199580000Y-77051178D03*
%TO.P,AMMO_DRIVER1,9,MODE_9*%
%TO.N,+5V*%
X199580000Y-74511178D03*
%TO.P,AMMO_DRIVER1,10,LED10_10*%
%TO.N,Net-(AMMO_DRIVER1-LED10)*%
X191960000Y-74511178D03*
%TO.P,AMMO_DRIVER1,11,LED9_11*%
%TO.N,unconnected-(AMMO_DRIVER1-LED9-Pad11)*%
X191960000Y-77051178D03*
%TO.P,AMMO_DRIVER1,12,LED8_12*%
%TO.N,Net-(AMMO_DRIVER1-LED8)*%
X191960000Y-79591178D03*
%TO.P,AMMO_DRIVER1,13,LED7_13*%
%TO.N,unconnected-(AMMO_DRIVER1-LED7-Pad13)*%
X191960000Y-82131178D03*
%TO.P,AMMO_DRIVER1,14,LED6_14*%
%TO.N,Net-(AMMO_DRIVER1-LED6)*%
X191960000Y-84671178D03*
%TO.P,AMMO_DRIVER1,15,LED5_15*%
%TO.N,unconnected-(AMMO_DRIVER1-LED5-Pad15)*%
X191960000Y-87211178D03*
%TO.P,AMMO_DRIVER1,16,LED4_16*%
%TO.N,Net-(AMMO_DRIVER1-LED4)*%
X191960000Y-89751178D03*
%TO.P,AMMO_DRIVER1,17,LED3_17*%
%TO.N,unconnected-(AMMO_DRIVER1-LED3-Pad17)*%
X191960000Y-92291178D03*
%TO.P,AMMO_DRIVER1,18,LED2_18*%
%TO.N,Net-(AMMO_DRIVER1-LED2)*%
X191960000Y-94831178D03*
%TD*%
%TO.P,R16,1*%
%TO.N,Net-(HP_DRIVER1-LED5)*%
X96972356Y-79131178D03*
%TO.P,R16,2*%
%TO.N,Net-(D5-K)*%
X104592356Y-79131178D03*
%TD*%
D17*
%TO.P,D1,1,K_1*%
%TO.N,Net-(D1-K)*%
X107322356Y-101131178D03*
D18*
%TO.P,D1,2,A_2*%
%TO.N,+5V*%
X109862356Y-101131178D03*
%TD*%
D12*
%TO.P,R9,1*%
%TO.N,Net-(HP_DRIVER1-REFADJ)*%
X86342356Y-47571178D03*
%TO.P,R9,2*%
%TO.N,Net-(HP_DRIVER1-REFOUT)*%
X86342356Y-55191178D03*
%TD*%
%TO.P,R18,1*%
%TO.N,Net-(HP_DRIVER1-LED7)*%
X96972356Y-68131178D03*
%TO.P,R18,2*%
%TO.N,Net-(D7-K)*%
X104592356Y-68131178D03*
%TD*%
%TO.P,R46,1*%
%TO.N,Net-(C1-Pad1)*%
X133200000Y-48390000D03*
%TO.P,R46,2*%
%TO.N,Net-(U1-VIN)*%
X133200000Y-56010000D03*
%TD*%
D17*
%TO.P,D12,1,K_1*%
%TO.N,Net-(D12-K)*%
X177540000Y-90631178D03*
D19*
%TO.P,D12,2,A_2*%
%TO.N,+5V*%
X175000000Y-90631178D03*
%TD*%
D12*
%TO.P,R44,1*%
%TO.N,Net-(R36-Pad2)*%
X161050000Y-56160000D03*
%TO.P,R44,2*%
%TO.N,Net-(J8-tip)*%
X161050000Y-48540000D03*
%TD*%
%TO.P,R32,1*%
%TO.N,Net-(AMMO_DRIVER1-LED4)*%
X187890000Y-90631178D03*
%TO.P,R32,2*%
%TO.N,Net-(D12-K)*%
X180270000Y-90631178D03*
%TD*%
%TO.P,R21,1*%
%TO.N,Net-(HP_DRIVER1-LED10)*%
X96972356Y-51631178D03*
%TO.P,R21,2*%
%TO.N,Net-(D10-K)*%
X104592356Y-51631178D03*
%TD*%
D17*
%TO.P,D7,1,K_1*%
%TO.N,Net-(D7-K)*%
X107322356Y-68131178D03*
D18*
%TO.P,D7,2,A_2*%
%TO.N,+5V*%
X109862356Y-68131178D03*
%TD*%
D12*
%TO.P,R43,1*%
%TO.N,/LSDAC5_PB7*%
X175842356Y-49321178D03*
%TO.P,R43,2*%
%TO.N,Net-(J8-tip)*%
X175842356Y-56941178D03*
%TD*%
D11*
%TO.P,J7,1,Pin_1_1*%
%TO.N,+3.3V*%
X205325000Y-44800000D03*
D10*
%TO.P,J7,2,Pin_2_2*%
%TO.N,+5V*%
X202785000Y-44800000D03*
%TO.P,J7,3,Pin_3_3*%
%TO.N,GND*%
X200245000Y-44800000D03*
%TO.P,J7,4,Pin_4_4*%
%TO.N,unconnected-(J7-Pin_4-Pad4)*%
X197705000Y-44800000D03*
%TD*%
D12*
%TO.P,R33,1*%
%TO.N,Net-(AMMO_DRIVER1-LED6)*%
X187890000Y-85131178D03*
%TO.P,R33,2*%
%TO.N,Net-(D13-K)*%
X180270000Y-85131178D03*
%TD*%
D22*
%TO.P,HP_DRIVER1,1,LED1_1*%
%TO.N,Net-(HP_DRIVER1-LED1)*%
X92592356Y-88251178D03*
D12*
%TO.P,HP_DRIVER1,2,V-_2*%
%TO.N,GND*%
X92592356Y-85711178D03*
%TO.P,HP_DRIVER1,3,V+_3*%
%TO.N,+5V*%
X92592356Y-83171178D03*
%TO.P,HP_DRIVER1,4,RLO_4*%
%TO.N,GND*%
X92592356Y-80631178D03*
%TO.P,HP_DRIVER1,5,SIG_5*%
%TO.N,Net-(HP_DRIVER1-SIG)*%
X92592356Y-78091178D03*
%TO.P,HP_DRIVER1,6,RHI_6*%
%TO.N,+3.3V*%
X92592356Y-75551178D03*
%TO.P,HP_DRIVER1,7,REFOUT_7*%
%TO.N,Net-(HP_DRIVER1-REFOUT)*%
X92592356Y-73011178D03*
%TO.P,HP_DRIVER1,8,REFADJ_8*%
%TO.N,Net-(HP_DRIVER1-REFADJ)*%
X92592356Y-70471178D03*
%TO.P,HP_DRIVER1,9,MODE_9*%
%TO.N,+5V*%
X92592356Y-67931178D03*
%TO.P,HP_DRIVER1,10,LED10_10*%
%TO.N,Net-(HP_DRIVER1-LED10)*%
X84972356Y-67931178D03*
%TO.P,HP_DRIVER1,11,LED9_11*%
%TO.N,Net-(HP_DRIVER1-LED9)*%
X84972356Y-70471178D03*
%TO.P,HP_DRIVER1,12,LED8_12*%
%TO.N,Net-(HP_DRIVER1-LED8)*%
X84972356Y-73011178D03*
%TO.P,HP_DRIVER1,13,LED7_13*%
%TO.N,Net-(HP_DRIVER1-LED7)*%
X84972356Y-75551178D03*
%TO.P,HP_DRIVER1,14,LED6_14*%
%TO.N,Net-(HP_DRIVER1-LED6)*%
X84972356Y-78091178D03*
%TO.P,HP_DRIVER1,15,LED5_15*%
%TO.N,Net-(HP_DRIVER1-LED5)*%
X84972356Y-80631178D03*
%TO.P,HP_DRIVER1,16,LED4_16*%
%TO.N,Net-(HP_DRIVER1-LED4)*%
X84972356Y-83171178D03*
%TO.P,HP_DRIVER1,17,LED3_17*%
%TO.N,Net-(HP_DRIVER1-LED3)*%
X84972356Y-85711178D03*
%TO.P,HP_DRIVER1,18,LED2_18*%
%TO.N,Net-(HP_DRIVER1-LED2)*%
X84972356Y-88251178D03*
%TD*%
D11*
%TO.P,J1,1,Pin_1_1*%
%TO.N,/LED Bar Drivers + DAC4s/HPDAC0*%
X88075000Y-124075000D03*
D10*
%TO.P,J1,2,Pin_2_2*%
%TO.N,/LED Bar Drivers + DAC4s/HPDAC1*%
X88075000Y-126615000D03*
%TO.P,J1,3,Pin_3_3*%
%TO.N,/LED Bar Drivers + DAC4s/HPDAC2*%
X88075000Y-129155000D03*
%TO.P,J1,4,Pin_4_4*%
%TO.N,/LED Bar Drivers + DAC4s/HPDAC3*%
X88075000Y-131695000D03*
%TD*%
D17*
%TO.P,D8,1,K_1*%
%TO.N,Net-(D8-K)*%
X107322356Y-62631178D03*
D18*
%TO.P,D8,2,A_2*%
%TO.N,+5V*%
X109862356Y-62631178D03*
%TD*%
D17*
%TO.P,D2,1,K_1*%
%TO.N,Net-(D2-K)*%
X107322356Y-95631178D03*
D18*
%TO.P,D2,2,A_2*%
%TO.N,+5V*%
X109862356Y-95631178D03*
%TD*%
D12*
%TO.P,R39,1*%
%TO.N,/DAC6/LS1DAC2*%
X188652356Y-61631178D03*
%TO.P,R39,2*%
%TO.N,Net-(J8-tip)*%
X181032356Y-61631178D03*
%TD*%
%TO.P,R38,1*%
%TO.N,/DAC6/LS1DAC1*%
X193842356Y-49321178D03*
%TO.P,R38,2*%
%TO.N,Net-(J8-tip)*%
X193842356Y-56941178D03*
%TD*%
%TO.P,R40,1*%
%TO.N,/DAC6/LS1DAC2*%
X189342356Y-49321178D03*
%TO.P,R40,2*%
%TO.N,Net-(J8-tip)*%
X189342356Y-56941178D03*
%TD*%
%TO.P,R20,1*%
%TO.N,Net-(HP_DRIVER1-LED9)*%
X96972356Y-57131178D03*
%TO.P,R20,2*%
%TO.N,Net-(D9-K)*%
X104592356Y-57131178D03*
%TD*%
D11*
%TO.P,J5,1,Pin_1_1*%
%TO.N,/LCD/RESET_LCD*%
X136775000Y-45000000D03*
D10*
%TO.P,J5,2,Pin_2_2*%
%TO.N,/D{slash}C_LCD*%
X134235000Y-45000000D03*
%TO.P,J5,3,Pin_3_3*%
%TO.N,/SD_CS*%
X131695000Y-45000000D03*
%TO.P,J5,4,Pin_4_4*%
%TO.N,/LCD/CLK_LCD*%
X129155000Y-45000000D03*
%TO.P,J5,5,Pin_5_5*%
%TO.N,/LCD/MOSI_LCD*%
X126615000Y-45000000D03*
%TO.P,J5,6,Pin_6_6*%
%TO.N,/LCD/SD_CS*%
X124075000Y-45000000D03*
%TD*%
D17*
%TO.P,D15,1,K_1*%
%TO.N,Net-(D15-K)*%
X177580000Y-74131178D03*
D19*
%TO.P,D15,2,A_2*%
%TO.N,+5V*%
X175040000Y-74131178D03*
%TD*%
D12*
%TO.P,R13,1*%
%TO.N,Net-(HP_DRIVER1-LED2)*%
X96972356Y-95631178D03*
%TO.P,R13,2*%
%TO.N,Net-(D2-K)*%
X104592356Y-95631178D03*
%TD*%
D11*
%TO.P,LCD1,1,LED-_1*%
%TO.N,GND*%
X119754856Y-59271178D03*
D10*
%TO.P,LCD1,2,LED+_2*%
%TO.N,+3.3V*%
X119754856Y-61811178D03*
%TO.P,LCD1,3,SD_CS_3*%
%TO.N,/LCD/SD_CS*%
X119754856Y-64351178D03*
%TO.P,LCD1,4,MOSI_4*%
%TO.N,/LCD/MOSI_LCD*%
X119754856Y-66891178D03*
%TO.P,LCD1,5,MISO_5*%
%TO.N,/LCD/MISO_LCD*%
X119754856Y-69431178D03*
%TO.P,LCD1,6,SCK_6*%
%TO.N,/LCD/CLK_LCD*%
X119754856Y-71971178D03*
%TO.P,LCD1,7,CS_7*%
%TO.N,/SD_CS*%
X119754856Y-74511178D03*
%TO.P,LCD1,8,SCL_8*%
%TO.N,/LCD/CLK_LCD*%
X119754856Y-77051178D03*
%TO.P,LCD1,9,SDA_9*%
%TO.N,/LCD/MOSI_LCD*%
X119754856Y-79591178D03*
%TO.P,LCD1,10,A0_10*%
%TO.N,/D{slash}C_LCD*%
X119754856Y-82131178D03*
%TO.P,LCD1,11,RESET_11*%
%TO.N,/LCD/RESET_LCD*%
X119754856Y-84671178D03*
%TO.P,LCD1,12,NC_12*%
%TO.N,unconnected-(LCD1-NC-Pad12)*%
X119754856Y-87211178D03*
%TO.P,LCD1,13,NC_13*%
%TO.N,unconnected-(LCD1-NC-Pad13)*%
X119754856Y-89751178D03*
%TO.P,LCD1,14,NC_14*%
%TO.N,unconnected-(LCD1-NC-Pad14)*%
X119754856Y-92291178D03*
%TO.P,LCD1,15,VCC_15*%
%TO.N,+3.3V*%
X119754856Y-94831178D03*
%TO.P,LCD1,16,GND_16*%
%TO.N,GND*%
X119754856Y-97371178D03*
%TD*%
D17*
%TO.P,D4,1,K_1*%
%TO.N,Net-(D4-K)*%
X107322356Y-84631178D03*
D18*
%TO.P,D4,2,A_2*%
%TO.N,+5V*%
X109862356Y-84631178D03*
%TD*%
D12*
%TO.P,R34,1*%
%TO.N,Net-(AMMO_DRIVER1-LED8)*%
X187890000Y-79631178D03*
%TO.P,R34,2*%
%TO.N,Net-(D14-K)*%
X180270000Y-79631178D03*
%TD*%
D17*
%TO.P,D13,1,K_1*%
%TO.N,Net-(D13-K)*%
X177580000Y-85131178D03*
D19*
%TO.P,D13,2,A_2*%
%TO.N,+5V*%
X175040000Y-85131178D03*
%TD*%
D11*
%TO.P,J3,1,Pin_1_1*%
%TO.N,/DAC6/LS1DAC0*%
X192542356Y-44800000D03*
D10*
%TO.P,J3,2,Pin_2_2*%
%TO.N,/DAC6/LS1DAC1*%
X190002356Y-44800000D03*
%TO.P,J3,3,Pin_3_3*%
%TO.N,/DAC6/LS1DAC2*%
X187462356Y-44800000D03*
%TO.P,J3,4,Pin_4_4*%
%TO.N,/DAC6/LS1DAC3*%
X184922356Y-44800000D03*
%TO.P,J3,5,Pin_5_5*%
%TO.N,/DAC6/LS1DAC4*%
X182382356Y-44800000D03*
%TO.P,J3,6,Pin_6_6*%
%TO.N,/LSDAC5_PB7*%
X179842356Y-44800000D03*
%TD*%
D12*
%TO.P,R1,1*%
%TO.N,/SWLang*%
X172342356Y-100881178D03*
%TO.P,R1,2*%
%TO.N,GND*%
X172342356Y-108501178D03*
%TD*%
D23*
%TO.N,Net-(HP_DRIVER1-SIG)*%
X102500000Y-117575000D03*
%TO.N,Net-(U1-VIN)*%
X141250000Y-57300000D03*
%TO.N,Net-(HP_DRIVER1-SIG)*%
X102500000Y-104925000D03*
%TD*%
%TO.N,/LED Bar Drivers + DAC4s/HPDAC0*%
D24*
X126462500Y-129025000D02*
X128327500Y-130890000D01*
X93025000Y-129025000D02*
X126462500Y-129025000D01*
X88075000Y-124075000D02*
X93025000Y-129025000D01*
%TO.N,Net-(HP_DRIVER1-SIG)*%
X102500000Y-117575000D02*
X102500000Y-117600000D01*
X102500000Y-104925000D02*
X102500000Y-117575000D01*
%TO.N,/SWLang*%
X190925000Y-131925000D02*
X193050000Y-134050000D01*
X190925000Y-103700000D02*
X190925000Y-131925000D01*
X184592356Y-102631178D02*
X189856178Y-102631178D01*
X189856178Y-102631178D02*
X190925000Y-103700000D01*
%TO.N,+5V*%
X171531178Y-99600000D02*
X175000000Y-96131178D01*
X111393534Y-99600000D02*
X171531178Y-99600000D01*
X109862356Y-101131178D02*
X111393534Y-99600000D01*
%TO.N,Net-(HP_DRIVER1-SIG)*%
X112592500Y-130890000D02*
X124393750Y-130890000D01*
%TO.N,Net-(R10-Pad1)*%
X104725000Y-130890000D02*
X108658750Y-130890000D01*
%TO.N,/LED Bar Drivers + DAC4s/HPDAC1*%
X115275000Y-133325000D02*
X120460000Y-138510000D01*
X94785000Y-133325000D02*
X115275000Y-133325000D01*
X88075000Y-126615000D02*
X94785000Y-133325000D01*
%TO.N,/LED Bar Drivers + DAC4s/HPDAC2*%
X109482500Y-135400000D02*
X112592500Y-138510000D01*
X94320000Y-135400000D02*
X109482500Y-135400000D01*
X88075000Y-129155000D02*
X94320000Y-135400000D01*
%TO.N,/LED Bar Drivers + DAC4s/HPDAC3*%
X88075000Y-131695000D02*
X94890000Y-138510000D01*
X94890000Y-138510000D02*
X104725000Y-138510000D01*
%TO.N,/LED Bar Drivers + DAC4s/HPDAC2*%
X116526250Y-138510000D02*
X112592500Y-138510000D01*
%TO.N,Net-(R11-Pad1)*%
X128327500Y-138510000D02*
X124393750Y-138510000D01*
%TO.N,/SWShoot*%
X133495000Y-138510000D02*
X132691250Y-137706250D01*
X136925000Y-138510000D02*
X133495000Y-138510000D01*
X137171920Y-138510000D02*
X136925000Y-138510000D01*
X141198685Y-134483235D02*
X137171920Y-138510000D01*
X147698685Y-134483235D02*
X141198685Y-134483235D01*
X149590450Y-136375000D02*
X147698685Y-134483235D01*
X198345000Y-136375000D02*
X149590450Y-136375000D01*
X200670000Y-134050000D02*
X198345000Y-136375000D01*
%TO.N,Net-(R24-Pad2)*%
X200860000Y-106860000D02*
X199700000Y-105700000D01*
X200860000Y-110125000D02*
X200860000Y-106860000D01*
%TO.N,Net-(AMMO_DRIVER1-SIG)*%
X200860000Y-119375000D02*
X200860000Y-114750000D01*
X200860000Y-124000000D02*
X200860000Y-119375000D01*
%TO.N,+3.3V*%
X147698685Y-138983235D02*
X141198685Y-138983235D01*
%TO.N,Net-(C5-Pad2)*%
X133215000Y-132601250D02*
X133240000Y-132626250D01*
%TO.N,+3.3V*%
X122800000Y-58766034D02*
X119754856Y-61811178D01*
X122500000Y-64556322D02*
X122500000Y-92086034D01*
X102868822Y-49131178D02*
X119731178Y-49131178D01*
X119731178Y-49131178D02*
X122800000Y-52200000D01*
X92592356Y-75551178D02*
X90700000Y-73658822D01*
X90700000Y-61300000D02*
X102868822Y-49131178D01*
X90700000Y-73658822D02*
X90700000Y-61300000D01*
X119754856Y-61811178D02*
X122500000Y-64556322D01*
X122500000Y-92086034D02*
X119754856Y-94831178D01*
X122800000Y-52200000D02*
X122800000Y-58766034D01*
%TO.N,GND*%
X171814928Y-107973750D02*
X172342356Y-108501178D01*
%TO.N,Net-(D5-K)*%
X104592356Y-79131178D02*
X107322356Y-79131178D01*
%TO.N,+5V*%
X175000000Y-74368822D02*
X175000000Y-96131178D01*
X199580000Y-89751178D02*
X189531178Y-99800000D01*
X199580000Y-74511178D02*
X199111178Y-74511178D01*
X175040000Y-74328822D02*
X175000000Y-74368822D01*
X109862356Y-101131178D02*
X109862356Y-82131178D01*
X176842356Y-70881178D02*
X175040000Y-72683534D01*
X95642356Y-64881178D02*
X109862356Y-64881178D01*
X92592356Y-67931178D02*
X95642356Y-64881178D01*
X189531178Y-99800000D02*
X178668822Y-99800000D01*
X109862356Y-64881178D02*
X109862356Y-51631178D01*
X178668822Y-99800000D02*
X175000000Y-96131178D01*
X92592356Y-83171178D02*
X108822356Y-83171178D01*
X109862356Y-82131178D02*
X109862356Y-64881178D01*
X175040000Y-74131178D02*
X175040000Y-74328822D01*
X175040000Y-72683534D02*
X175040000Y-74131178D01*
X199111178Y-74511178D02*
X195481178Y-70881178D01*
X108822356Y-83171178D02*
X109862356Y-82131178D01*
X195481178Y-70881178D02*
X176842356Y-70881178D01*
%TO.N,Net-(HP_DRIVER1-LED3)*%
X84972356Y-85711178D02*
X89392356Y-90131178D01*
X89392356Y-90131178D02*
X96972356Y-90131178D01*
%TO.N,Net-(D3-K)*%
X107322356Y-90131178D02*
X104592356Y-90131178D01*
%TO.N,Net-(AMMO_DRIVER1-LED2)*%
X190660000Y-96131178D02*
X191960000Y-94831178D01*
X187890000Y-96131178D02*
X190660000Y-96131178D01*
%TO.N,Net-(D11-K)*%
X177540000Y-96131178D02*
X180270000Y-96131178D01*
%TO.N,/LSDAC5_PB7*%
X171652356Y-48631178D02*
X175152356Y-48631178D01*
X175842356Y-49321178D02*
X179842356Y-45321178D01*
X179842356Y-45321178D02*
X179842356Y-44800000D01*
X179842356Y-45321178D02*
X179842356Y-44381178D01*
X175152356Y-48631178D02*
X175842356Y-49321178D01*
%TO.N,Net-(J8-tip)*%
X175842356Y-56941178D02*
X172342356Y-56941178D01*
X164032356Y-43117644D02*
X165450000Y-41700000D01*
X164032356Y-48631178D02*
X164032356Y-43117644D01*
X187151178Y-54750000D02*
X182533534Y-54750000D01*
X180342356Y-56941178D02*
X181050000Y-57648822D01*
X181050000Y-61613534D02*
X181032356Y-61631178D01*
X161050000Y-48540000D02*
X163941178Y-48540000D01*
X189342356Y-56941178D02*
X193842356Y-56941178D01*
X163941178Y-48540000D02*
X164032356Y-48631178D01*
X182533534Y-54750000D02*
X180342356Y-56941178D01*
X181032356Y-61631178D02*
X181032356Y-66381178D01*
X181050000Y-57648822D02*
X181050000Y-61613534D01*
X189342356Y-56941178D02*
X187151178Y-54750000D01*
X180342356Y-56941178D02*
X175842356Y-56941178D01*
X172342356Y-56941178D02*
X164032356Y-48631178D01*
%TO.N,Net-(D6-K)*%
X104592356Y-73631178D02*
X107322356Y-73631178D01*
%TO.N,Net-(D10-K)*%
X104592356Y-51631178D02*
X107322356Y-51631178D01*
%TO.N,Net-(AMMO_DRIVER1-REFADJ)*%
X202592356Y-63321178D02*
X202592356Y-66441178D01*
X201592356Y-75038822D02*
X201592356Y-73131178D01*
X199402356Y-70941178D02*
X198092356Y-70941178D01*
X201592356Y-73131178D02*
X199402356Y-70941178D01*
X202592356Y-66441178D02*
X198092356Y-70941178D01*
X199580000Y-77051178D02*
X201592356Y-75038822D01*
%TO.N,Net-(HP_DRIVER1-LED1)*%
X96860123Y-88251178D02*
X100842356Y-92233411D01*
X99092356Y-101131178D02*
X96972356Y-101131178D01*
X100842356Y-92233411D02*
X100842356Y-99381178D01*
X100842356Y-99381178D02*
X99092356Y-101131178D01*
X92592356Y-88251178D02*
X96860123Y-88251178D01*
%TO.N,Net-(D1-K)*%
X107322356Y-101131178D02*
X104592356Y-101131178D01*
%TO.N,Net-(D9-K)*%
X104592356Y-57131178D02*
X107322356Y-57131178D01*
%TO.N,/DAC6/LS1DAC4*%
X180342356Y-49321178D02*
X180342356Y-46840000D01*
X180342356Y-46840000D02*
X182382356Y-44800000D01*
%TO.N,Net-(D8-K)*%
X104592356Y-62631178D02*
X107322356Y-62631178D01*
%TO.N,Net-(R37-Pad2)*%
X184842356Y-62571178D02*
X184842356Y-56941178D01*
X188652356Y-66381178D02*
X184842356Y-62571178D01*
%TO.N,/DAC6/LS1DAC3*%
X184842356Y-44880000D02*
X184922356Y-44800000D01*
X184842356Y-49321178D02*
X184842356Y-44880000D01*
%TO.N,Net-(AMMO_DRIVER1-REFOUT)*%
X202592356Y-70941178D02*
X202592356Y-76578822D01*
X202592356Y-76578822D02*
X199580000Y-79591178D01*
%TO.N,Net-(J4-Pin_1)*%
X129800000Y-48390000D02*
X131490000Y-46700000D01*
X147925000Y-46700000D02*
X149625000Y-45000000D01*
X150325000Y-45700000D02*
X149625000Y-45000000D01*
X158915000Y-45700000D02*
X150325000Y-45700000D01*
X131490000Y-46700000D02*
X147925000Y-46700000D01*
X161045000Y-43570000D02*
X158915000Y-45700000D01*
%TO.N,Net-(J4-Pin_4)*%
X159755000Y-37240000D02*
X161045000Y-35950000D01*
X142005000Y-45000000D02*
X149765000Y-37240000D01*
X149765000Y-37240000D02*
X159755000Y-37240000D01*
%TO.N,Net-(C1-Pad1)*%
X154631250Y-48390000D02*
X133200000Y-48390000D01*
X155885000Y-49643750D02*
X154631250Y-48390000D01*
%TO.N,Net-(AMMO_DRIVER1-LED10)*%
X191580000Y-74131178D02*
X191960000Y-74511178D01*
X187902356Y-74131178D02*
X191580000Y-74131178D01*
%TO.N,Net-(D15-K)*%
X177580000Y-74131178D02*
X180282356Y-74131178D01*
%TO.N,Net-(HP_DRIVER1-LED4)*%
X84972356Y-83171178D02*
X86262356Y-84461178D01*
X86262356Y-84461178D02*
X96802356Y-84461178D01*
X96802356Y-84461178D02*
X96972356Y-84631178D01*
%TO.N,Net-(D4-K)*%
X104592356Y-84631178D02*
X107322356Y-84631178D01*
%TO.N,Net-(U1-VIN)*%
X134490000Y-57300000D02*
X133200000Y-56010000D01*
X133200000Y-56010000D02*
X129800000Y-56010000D01*
X141250000Y-57300000D02*
X134490000Y-57300000D01*
%TO.N,Net-(D14-K)*%
X177580000Y-79631178D02*
X180270000Y-79631178D01*
%TO.N,/DAC6/LS1DAC0*%
X198342356Y-49321178D02*
X197063534Y-49321178D01*
X197063534Y-49321178D02*
X192542356Y-44800000D01*
%TO.N,Net-(R36-Pad2)*%
X198342356Y-58458945D02*
X198342356Y-56941178D01*
X161050000Y-56160000D02*
X161050000Y-58398822D01*
X189170123Y-67631178D02*
X198342356Y-58458945D01*
X170282356Y-67631178D02*
X189170123Y-67631178D01*
X161050000Y-58398822D02*
X170282356Y-67631178D01*
%TO.N,Net-(AMMO_DRIVER1-LED8)*%
X191920000Y-79631178D02*
X191960000Y-79591178D01*
X187890000Y-79631178D02*
X191920000Y-79631178D01*
%TO.N,Net-(AMMO_DRIVER1-LED6)*%
X191500000Y-85131178D02*
X191960000Y-84671178D01*
X187890000Y-85131178D02*
X191500000Y-85131178D01*
%TO.N,Net-(AMMO_DRIVER1-LED4)*%
X191080000Y-90631178D02*
X191960000Y-89751178D01*
X187890000Y-90631178D02*
X191080000Y-90631178D01*
%TO.N,Net-(HP_DRIVER1-LED5)*%
X84972356Y-80631178D02*
X86262356Y-79341178D01*
X86262356Y-79341178D02*
X96762356Y-79341178D01*
X96762356Y-79341178D02*
X96972356Y-79131178D01*
%TO.N,Net-(D7-K)*%
X104592356Y-68131178D02*
X107322356Y-68131178D01*
%TO.N,Net-(D12-K)*%
X177540000Y-90631178D02*
X180270000Y-90631178D01*
%TO.N,Net-(HP_DRIVER1-LED10)*%
X96972356Y-51631178D02*
X84972356Y-63631178D01*
X84972356Y-63631178D02*
X84972356Y-67931178D01*
%TO.N,Net-(D13-K)*%
X177580000Y-85131178D02*
X180270000Y-85131178D01*
%TO.N,Net-(HP_DRIVER1-LED2)*%
X92352356Y-95631178D02*
X96972356Y-95631178D01*
X84972356Y-88251178D02*
X92352356Y-95631178D01*
%TO.N,Net-(D2-K)*%
X104592356Y-95631178D02*
X107322356Y-95631178D01*
%TO.N,/DAC6/LS1DAC2*%
X189342356Y-46680000D02*
X187462356Y-44800000D01*
X189342356Y-49321178D02*
X189342356Y-46680000D01*
X188652356Y-61631178D02*
X192018822Y-61631178D01*
X195950000Y-57700000D02*
X195950000Y-55400000D01*
X195950000Y-55400000D02*
X189871178Y-49321178D01*
X189871178Y-49321178D02*
X189342356Y-49321178D01*
X192018822Y-61631178D02*
X195950000Y-57700000D01*
%TO.N,/DAC6/LS1DAC1*%
X193842356Y-49321178D02*
X190002356Y-45481178D01*
X190002356Y-45481178D02*
X190002356Y-44800000D01*
%TO.N,/LCD/CLK_LCD*%
X121500000Y-75750000D02*
X120198822Y-77051178D01*
X119754856Y-71971178D02*
X120121178Y-71971178D01*
X120198822Y-77051178D02*
X119754856Y-77051178D01*
X121500000Y-73350000D02*
X121500000Y-75750000D01*
X120121178Y-71971178D02*
X121500000Y-73350000D01*
%TO.N,/SWShoot*%
X141198685Y-135086315D02*
X141198685Y-134483235D01*
%TD*%
M02*
